<?xml version="1.0" standalone="no"?>
<!DOCTYPE svg PUBLIC "-//W3C//DTD SVG 20010904//EN"
 "http://www.w3.org/TR/2001/REC-SVG-20010904/DTD/svg10.dtd">
<svg version="1.0" xmlns="http://www.w3.org/2000/svg"
 width="200.000000pt" height="200.000000pt" viewBox="0 0 200.000000 200.000000"
 preserveAspectRatio="xMidYMid meet">
<metadata>
Created by potrace 1.14, written by Peter Selinger 2001-2017
</metadata>
<g transform="translate(0.000000,200.000000) scale(0.100000,-0.100000)"
fill="#000000" stroke="none">
<path d="M58 1699 c-17 -9 -18 -48 -18 -579 0 -553 1 -570 19 -580 11 -5 79
-10 151 -10 l130 0 12 26 c22 48 4 59 -111 62 l-101 3 0 499 0 500 98 0 c101
0 122 7 122 41 0 41 -25 49 -158 49 -70 0 -135 -5 -144 -11z"/>
<path d="M1656 1694 c-9 -8 -16 -23 -16 -33 0 -34 21 -41 122 -41 l98 0 0
-500 0 -499 -101 -3 c-115 -3 -133 -14 -111 -62 l12 -26 130 0 c72 0 140 5
151 10 18 10 19 27 19 580 0 553 -1 570 -19 580 -11 5 -76 10 -145 10 -100 0
-128 -3 -140 -16z"/>
<path d="M354 1461 c-43 -19 -54 -49 -54 -149 0 -132 19 -161 103 -162 16 0
38 10 52 25 21 20 25 34 25 85 l0 60 -45 0 c-33 0 -45 -4 -45 -15 0 -10 10
-15 30 -15 29 0 30 -2 30 -43 0 -51 -13 -67 -56 -67 -55 0 -64 19 -64 129 0
107 11 131 61 131 30 0 43 -9 58 -37 14 -28 31 -30 31 -4 0 48 -74 84 -126 62z"/>
<path d="M1203 1463 c-43 -8 -53 -38 -53 -159 0 -110 1 -113 26 -133 29 -23
70 -27 107 -10 38 17 59 79 27 79 -5 0 -12 -11 -16 -25 -11 -45 -89 -48 -112
-5 -17 32 -12 191 7 214 8 9 29 16 48 16 27 0 37 -6 51 -30 9 -16 22 -28 27
-26 17 5 5 40 -21 64 -24 21 -43 24 -91 15z"/>
<path d="M1362 1438 c5 -15 28 -18 29 -3 0 6 -7 12 -17 13 -10 3 -15 -1 -12
-10z"/>
<path d="M1440 1316 c0 -128 1 -136 22 -150 27 -19 71 -21 66 -4 -3 7 -15 15
-29 18 -22 5 -24 11 -27 78 l-3 72 31 0 c20 0 30 5 30 15 0 10 -10 15 -30 15
-29 0 -30 2 -30 45 0 33 -4 45 -15 45 -13 0 -15 -22 -15 -134z"/>
<path d="M549 1331 c-32 -32 -39 -88 -18 -134 20 -44 95 -62 135 -33 26 19 13
29 -20 16 -50 -18 -96 8 -96 54 0 13 13 16 65 16 68 0 71 3 66 50 -3 24 -50
60 -77 60 -15 0 -38 -12 -55 -29z m101 -31 c15 -29 14 -30 -45 -30 -57 0 -68
10 -42 42 25 32 66 27 87 -12z"/>
<path d="M725 1349 c-11 -29 -1 -192 13 -197 9 -3 12 16 12 71 0 80 15 107 58
107 30 0 36 -15 42 -100 3 -41 10 -75 15 -75 6 0 12 35 15 78 5 78 15 97 50
97 35 0 45 -19 50 -97 7 -103 25 -97 25 8 0 73 -2 83 -24 100 -30 25 -66 24
-91 -1 l-20 -20 -20 20 c-24 24 -63 26 -80 5 -11 -13 -14 -13 -26 2 -11 16
-13 16 -19 2z"/>
<path d="M1365 1338 c-11 -41 -1 -181 13 -186 9 -3 12 21 12 97 0 94 -13 139
-25 89z"/>
<path d="M1540 1348 c0 -7 16 -53 35 -102 33 -84 34 -90 20 -123 -8 -19 -24
-37 -35 -40 -24 -6 -27 -33 -4 -33 8 0 25 11 37 24 28 31 117 268 106 280 -12
13 -14 10 -47 -79 l-29 -78 -30 78 c-27 72 -53 107 -53 73z"/>
<path d="M567 1093 c-4 -3 -7 -15 -7 -25 0 -14 8 -18 40 -18 l39 0 3 -132 c3
-121 5 -133 22 -136 30 -6 36 16 36 146 l0 122 34 0 c39 0 53 14 36 35 -9 11
-36 15 -105 15 -50 0 -95 -3 -98 -7z"/>
<path d="M812 1092 c-9 -7 -12 -45 -10 -158 l3 -149 89 -3 c90 -3 111 4 99 35
-4 9 -25 13 -69 13 l-64 0 0 45 0 45 41 0 c33 0 40 3 37 18 -2 12 -14 18 -41
20 -37 3 -37 4 -37 48 l0 44 64 0 c65 0 88 14 63 39 -13 13 -155 15 -175 3z"/>
<path d="M1093 1093 c-13 -2 -32 -16 -43 -30 -17 -22 -20 -40 -20 -130 0 -97
2 -106 25 -128 55 -56 181 -17 173 53 -5 41 -42 43 -56 3 -9 -25 -16 -31 -41
-31 -40 0 -51 23 -51 104 0 74 5 93 30 106 25 13 50 2 61 -26 12 -33 59 -34
59 -1 0 35 -27 65 -68 77 -20 5 -39 9 -42 9 -3 -1 -15 -4 -27 -6z"/>
<path d="M1287 1088 c-15 -8 -17 -28 -17 -146 0 -75 4 -143 9 -150 5 -8 17
-12 27 -10 16 3 19 14 22 71 l3 67 49 0 49 0 3 -67 c3 -57 6 -68 22 -71 10 -2
22 2 27 10 5 7 9 75 9 150 0 121 -2 138 -17 146 -33 17 -43 3 -43 -59 l0 -59
-50 0 -50 0 0 59 c0 62 -11 77 -43 59z"/>
<path d="M500 805 c0 -22 4 -26 23 -23 14 2 22 10 22 23 0 13 -8 21 -22 23
-19 3 -23 -1 -23 -23z"/>
</g>
</svg>
